<svg xmlns="http://www.w3.org/2000/svg" width="1340" height="531" viewBox="0 0 1340 531" fill="none" style="filter: invert(0);"> <path d="M-15.8782 415.055C-23.017 460.987 -50.2502 498.112 -60 516.507V531H1340V2C1329.92 7.94591 1303.81 19.8377 1299.84 62.2023C1295.88 104.567 1268.72 182.127 1243.33 87.844C1217.05 -9.70601 1205.65 170.901 1153.6 263.992C1101.54 357.082 1020.74 255.073 997.932 185.952C975.127 116.83 945.59 209.11 931.501 238.907C910.68 282.944 824.419 363.771 721.303 263.992C618.187 164.212 525.381 314.409 485.326 401.119C432.28 515.949 283.555 426.203 237.946 395.545C192.337 364.886 117.479 382.724 86.7422 453.517C56.0057 524.311 27.2521 459.092 15.8499 371.575C4.46291 284.177 -6.92403 357.442 -15.8422 414.823L-15.8782 415.055Z" fill="url(#paint0_linear_0_73)"/> <path d="M-60 517C-50.2502 498.587 -23.017 461.427 -15.8782 415.451C-6.95467 357.981 4.44759 284.329 15.8499 371.93C27.2521 459.53 56.0057 524.811 86.7422 453.95C117.479 383.089 192.337 365.234 237.946 395.922C283.555 426.61 432.28 516.442 485.326 401.502C525.381 314.709 618.187 164.367 721.303 264.243C824.419 364.118 910.68 283.213 931.501 239.134C945.59 209.309 975.127 116.94 997.932 186.128C1020.74 255.315 1101.54 357.423 1153.6 264.243C1205.65 171.063 1217.05 -9.71723 1243.33 87.9263C1268.72 182.3 1295.88 104.665 1299.84 62.26C1303.81 19.8548 1329.92 7.95161 1340 2" stroke="#E0E6EB" stroke-width="4"/> <g filter="url(#filter0_d_0_73)"> <circle cx="17" cy="371" r="10" fill="#C7CAD1"/> <circle cx="17" cy="371" r="8" stroke="#E0E6EB" stroke-width="4"/> </g> <g filter="url(#filter1_d_0_73)"> <circle cx="196" cy="382" r="10" fill="#C7CAD1"/> <circle cx="196" cy="382" r="8" stroke="#E0E6EB" stroke-width="4"/> </g> <g filter="url(#filter2_d_0_73)"> <circle cx="650" cy="230" r="10" fill="#C7CAD1"/> <circle cx="650" cy="230" r="8" stroke="#E0E6EB" stroke-width="4"/> </g> <g filter="url(#filter3_d_0_73)"> <circle cx="985" cy="161" r="10" fill="#C7CAD1"/> <circle cx="985" cy="161" r="8" stroke="#E0E6EB" stroke-width="4"/> </g> <g filter="url(#filter4_d_0_73)"> <circle cx="1230" cy="61" r="10" fill="#C7CAD1"/> <circle cx="1230" cy="61" r="8" stroke="#E0E6EB" stroke-width="4"/> </g> <defs> <filter id="filter0_d_0_73" x="-3" y="351" width="40" height="40" filterUnits="userSpaceOnUse" color-interpolation-filters="sRGB"> <feFlood flood-opacity="0" result="BackgroundImageFix"/> <feColorMatrix in="SourceAlpha" type="matrix" values="0 0 0 0 0 0 0 0 0 0 0 0 0 0 0 0 0 0 127 0" result="hardAlpha"/> <feOffset/> <feGaussianBlur stdDeviation="5"/> <feComposite in2="hardAlpha" operator="out"/> <feColorMatrix type="matrix" values="0 0 0 0 0.180392 0 0 0 0 0.243137 0 0 0 0 0.301961 0 0 0 0.2 0"/> <feBlend mode="normal" in2="BackgroundImageFix" result="effect1_dropShadow_0_73"/> <feBlend mode="normal" in="SourceGraphic" in2="effect1_dropShadow_0_73" result="shape"/> </filter> <filter id="filter1_d_0_73" x="176" y="362" width="40" height="40" filterUnits="userSpaceOnUse" color-interpolation-filters="sRGB"> <feFlood flood-opacity="0" result="BackgroundImageFix"/> <feColorMatrix in="SourceAlpha" type="matrix" values="0 0 0 0 0 0 0 0 0 0 0 0 0 0 0 0 0 0 127 0" result="hardAlpha"/> <feOffset/> <feGaussianBlur stdDeviation="5"/> <feComposite in2="hardAlpha" operator="out"/> <feColorMatrix type="matrix" values="0 0 0 0 0.180392 0 0 0 0 0.243137 0 0 0 0 0.301961 0 0 0 0.2 0"/> <feBlend mode="normal" in2="BackgroundImageFix" result="effect1_dropShadow_0_73"/> <feBlend mode="normal" in="SourceGraphic" in2="effect1_dropShadow_0_73" result="shape"/> </filter> <filter id="filter2_d_0_73" x="630" y="210" width="40" height="40" filterUnits="userSpaceOnUse" color-interpolation-filters="sRGB"> <feFlood flood-opacity="0" result="BackgroundImageFix"/> <feColorMatrix in="SourceAlpha" type="matrix" values="0 0 0 0 0 0 0 0 0 0 0 0 0 0 0 0 0 0 127 0" result="hardAlpha"/> <feOffset/> <feGaussianBlur stdDeviation="5"/> <feComposite in2="hardAlpha" operator="out"/> <feColorMatrix type="matrix" values="0 0 0 0 0.180392 0 0 0 0 0.243137 0 0 0 0 0.301961 0 0 0 0.2 0"/> <feBlend mode="normal" in2="BackgroundImageFix" result="effect1_dropShadow_0_73"/> <feBlend mode="normal" in="SourceGraphic" in2="effect1_dropShadow_0_73" result="shape"/> </filter> <filter id="filter3_d_0_73" x="965" y="141" width="40" height="40" filterUnits="userSpaceOnUse" color-interpolation-filters="sRGB"> <feFlood flood-opacity="0" result="BackgroundImageFix"/> <feColorMatrix in="SourceAlpha" type="matrix" values="0 0 0 0 0 0 0 0 0 0 0 0 0 0 0 0 0 0 127 0" result="hardAlpha"/> <feOffset/> <feGaussianBlur stdDeviation="5"/> <feComposite in2="hardAlpha" operator="out"/> <feColorMatrix type="matrix" values="0 0 0 0 0.180392 0 0 0 0 0.243137 0 0 0 0 0.301961 0 0 0 0.2 0"/> <feBlend mode="normal" in2="BackgroundImageFix" result="effect1_dropShadow_0_73"/> <feBlend mode="normal" in="SourceGraphic" in2="effect1_dropShadow_0_73" result="shape"/> </filter> <filter id="filter4_d_0_73" x="1210" y="41" width="40" height="40" filterUnits="userSpaceOnUse" color-interpolation-filters="sRGB"> <feFlood flood-opacity="0" result="BackgroundImageFix"/> <feColorMatrix in="SourceAlpha" type="matrix" values="0 0 0 0 0 0 0 0 0 0 0 0 0 0 0 0 0 0 127 0" result="hardAlpha"/> <feOffset/> <feGaussianBlur stdDeviation="5"/> <feComposite in2="hardAlpha" operator="out"/> <feColorMatrix type="matrix" values="0 0 0 0 0.180392 0 0 0 0 0.243137 0 0 0 0 0.301961 0 0 0 0.2 0"/> <feBlend mode="normal" in2="BackgroundImageFix" result="effect1_dropShadow_0_73"/> <feBlend mode="normal" in="SourceGraphic" in2="effect1_dropShadow_0_73" result="shape"/> </filter> <linearGradient id="paint0_linear_0_73" x1="640" y1="2" x2="640" y2="531" gradientUnits="userSpaceOnUse"> <stop stop-color="#E6E6E6"/> <stop offset="1" stop-color="#FBFBFB"/> </linearGradient> </defs> </svg>